<?xml version="1.0" standalone="no"?>
<!DOCTYPE svg PUBLIC "-//W3C//DTD SVG 20010904//EN"
 "http://www.w3.org/TR/2001/REC-SVG-20010904/DTD/svg10.dtd">
<svg version="1.0" xmlns="http://www.w3.org/2000/svg"
 width="500.000000pt" height="500.000000pt" viewBox="0 0 500.000000 500.000000"
 preserveAspectRatio="xMidYMid meet">

<g transform="translate(0.000000,500.000000) scale(0.100000,-0.100000)"
fill="#000000" stroke="none">
<path d="M975 4479 c-4 -6 -5 -12 -2 -15 2 -3 7 2 10 11 7 17 1 20 -8 4z"/>
<path d="M844 4368 l-19 -23 23 19 c21 18 27 26 19 26 -2 0 -12 -10 -23 -22z"/>
<path d="M2340 4360 c-435 -31 -858 -256 -1157 -614 -41 -49 -79 -99 -85 -112
-6 -13 -15 -21 -21 -17 -6 3 -7 2 -4 -3 7 -13 -58 -116 -68 -106 -4 4 -6 0 -4
-8 1 -8 -16 -53 -39 -100 -56 -118 -99 -245 -129 -380 -23 -106 -26 -142 -32
-452 l-6 -338 -25 -17 c-14 -10 -41 -26 -60 -36 -47 -25 -115 -93 -144 -142
-34 -57 -56 -139 -56 -204 0 -72 169 -744 206 -819 35 -72 107 -141 188 -181
59 -29 80 -34 158 -36 88 -3 91 -4 108 -33 26 -43 88 -90 143 -108 66 -22 194
-15 258 13 87 39 151 124 170 228 11 63 8 79 -145 677 l-94 367 303 0 c166 0
309 3 318 7 9 3 22 25 28 48 24 92 33 121 39 129 4 4 19 -33 34 -82 15 -52 33
-91 42 -95 9 -3 47 -6 84 -6 56 0 71 3 79 18 8 15 61 278 108 535 9 48 18 85
20 83 2 -2 21 -238 42 -524 26 -358 42 -526 51 -537 15 -18 50 -20 73 -2 12 9
33 104 82 361 36 192 65 354 66 360 1 13 33 -149 43 -215 12 -83 -4 -79 307
-79 l277 -1 -49 -192 c-185 -718 -201 -789 -193 -847 4 -30 7 -57 7 -60 -2
-15 77 -118 106 -137 95 -64 245 -84 336 -44 43 19 135 101 135 120 0 7 49 13
198 24 12 1 22 4 22 7 0 3 24 16 53 30 66 31 134 100 169 170 17 33 64 200
119 415 85 334 91 365 86 433 -10 138 -90 260 -211 323 -61 32 -64 35 -70 77
-3 25 -6 151 -6 281 0 130 -5 275 -11 321 -6 47 -12 99 -14 115 -1 17 -5 37
-8 45 -3 8 -15 53 -27 100 -78 302 -276 618 -516 824 -38 33 -73 64 -79 70
-23 25 -191 129 -283 175 -196 98 -402 155 -622 171 -137 10 -148 10 -300 0z
m450 -390 c342 -85 623 -280 810 -561 143 -216 207 -425 217 -715 l6 -172 -34
-7 c-66 -15 -157 -92 -181 -154 -5 -14 -27 -91 -47 -171 l-37 -145 -252 -3
-251 -2 -10 52 c-16 85 -38 204 -62 338 -26 148 -31 160 -68 160 -15 0 -35 -8
-43 -17 -9 -11 -37 -136 -68 -305 -30 -158 -55 -286 -57 -285 -1 2 -18 223
-37 493 -41 573 -41 564 -58 575 -23 15 -63 10 -80 -10 -9 -11 -15 -21 -12
-23 2 -3 -9 -72 -25 -154 -17 -82 -57 -293 -91 -469 -33 -176 -64 -328 -68
-338 -5 -12 -19 24 -45 115 -44 151 -56 188 -70 206 -11 14 -46 16 -66 3 -8
-5 -35 -82 -61 -172 l-47 -164 -288 0 -288 0 -37 142 c-46 174 -55 197 -99
246 -34 38 -116 87 -146 87 -13 0 -15 22 -15 149 0 86 6 184 15 232 50 284
183 532 395 737 74 71 232 185 257 185 6 0 10 4 8 8 -8 11 194 95 297 123 143
39 197 45 383 41 130 -3 190 -8 255 -25z"/>
<path d="M749 4283 l-24 -28 28 24 c15 14 27 26 27 28 0 8 -8 1 -31 -24z"/>
<path d="M609 4133 c-13 -16 -12 -17 4 -4 9 7 17 15 17 17 0 8 -8 3 -21 -13z"/>
<path d="M4460 4036 c0 -2 8 -10 18 -17 15 -13 16 -12 3 4 -13 16 -21 21 -21
13z"/>
<path d="M4490 3996 c0 -2 8 -10 18 -17 15 -13 16 -12 3 4 -13 16 -21 21 -21
13z"/>
<path d="M4369 853 l-24 -28 28 24 c25 23 32 31 24 31 -2 0 -14 -12 -28 -27z"/>
<path d="M690 775 c13 -14 26 -25 28 -25 3 0 -5 11 -18 25 -13 14 -26 25 -28
25 -3 0 5 -11 18 -25z"/>
<path d="M4229 703 c-13 -16 -12 -17 4 -4 16 13 21 21 13 21 -2 0 -10 -8 -17
-17z"/>
<path d="M4129 613 c-13 -16 -12 -17 4 -4 16 13 21 21 13 21 -2 0 -10 -8 -17
-17z"/>
</g>
</svg>
